Coordinates
version=1
nRows=15
nColumns=23
inDegrees=yes

Units are S.I. units (second, meters, Newtons, ...)
If the header above contains a line with 'inDegrees', this indicates whether rotational values are in degrees (yes) or radians (no).

endheader
time	pelvis_tilt	pelvis_list	pelvis_rotation	pelvis_tx	pelvis_ty	pelvis_tz	hip_flexion_r	hip_adduction_r	hip_rotation_r	knee_angle_r	knee_angle_r_beta	ankle_angle_r	subtalar_angle_r	mtp_angle_r	hip_flexion_l	hip_adduction_l	hip_rotation_l	knee_angle_l	knee_angle_l_beta	ankle_angle_l	subtalar_angle_l	mtp_angle_l
     15.00000000	    -11.75835405	      2.45559097	     -5.50788084	      2.13672545	      1.02023045	      1.05804273	    -17.73064698	     -3.15159515	    -18.89294459	     17.77099951	      0.31016245	    -19.02758780	      2.79582792	      0.00000000	     61.75839546	     -2.54309520	     -4.01985119	     70.50816083	      1.23059956	      6.24465474	    -15.01261599	      0.00000000
     15.00666667	    -11.73372059	      2.46549229	     -5.25739408	      2.13801389	      1.02164422	      1.05670888	    -18.45682732	     -3.83380648	    -21.82716449	     19.68763766	      0.34361410	    -19.32149642	      2.84818476	      0.00000000	     60.89063283	     -2.36831865	     -4.28591323	     66.18772021	      1.15519364	      6.80799049	    -13.78921941	      0.00000000
     15.01333333	    -11.78000847	      2.53852710	     -4.93095511	      2.13928100	      1.02249644	      1.05488652	    -19.11548543	     -4.44615596	    -23.62805903	     21.63336608	      0.37757347	    -19.28392800	      1.93622764	      0.00000000	     59.94419355	     -1.95657529	     -4.43361916	     61.74458191	      1.07764625	      7.35473699	    -12.35961668	      0.00000000
     15.02000000	    -11.64982682	      2.74023243	     -4.58028985	      2.14049776	      1.02297499	      1.05272573	    -19.84815658	     -5.24599652	    -24.95465923	     23.89653793	      0.41707327	    -18.74943112	      1.42556397	      0.00000000	     58.66299160	     -1.37990007	     -4.65776238	     57.22544081	      0.99877236	      7.92546211	    -10.60056892	      0.00000000
     15.02666667	    -11.51380730	      3.03387551	     -4.23733307	      2.14166836	      1.02298710	      1.05039847	    -20.46003127	     -6.08504895	    -25.46552784	     26.38418869	      0.46049096	    -17.99117385	      0.81401976	      0.00000000	     57.23499716	     -0.67821183	     -4.84945020	     52.65365510	      0.91897964	      8.52540197	     -8.56000383	      0.00000000
     15.03333333	    -11.35570647	      3.38424399	     -3.90634365	      2.14271483	      1.02271006	      1.04804798	    -20.90640762	     -6.79048902	    -24.82915715	     29.06184193	      0.50722483	    -17.29466457	     -0.48976596	      0.00000000	     55.63732065	      0.13496871	     -4.91418764	     48.01914458	      0.83809218	      9.12834294	     -6.37139009	      0.00000000
     15.04000000	    -11.17540096	      3.72289205	     -3.67776061	      2.14351685	      1.02221026	      1.04590152	    -21.09788891	     -7.30744442	    -23.10075494	     32.02624474	      0.55896342	    -16.68149285	     -2.30461621	      0.00000000	     53.89775359	      0.90670567	     -4.85741670	     43.40704401	      0.75759584	      9.70959572	     -4.07640110	      0.00000000
     15.04666667	    -10.88068738	      3.88730759	     -3.74250396	      2.14400625	      1.02181381	      1.04451291	    -21.06389034	     -7.34265407	    -19.84121341	     35.21021817	      0.61453424	    -16.46506071	     -5.07844654	      0.00000000	     51.96174165	      1.22703824	     -4.98071246	     38.98085742	      0.68034431	     10.41864604	     -1.15987003	      0.00000000
     15.05333333	    -10.65924787	      4.02868804	     -3.91276810	      2.14412159	      1.02105826	      1.04362670	    -20.62572560	     -7.14743254	    -16.01604509	     38.86938283	      0.67839871	    -16.36569123	     -7.86682528	      0.00000000	     50.03522199	      1.52932738	     -4.82650724	     34.66649543	      0.60504449	     10.90382425	      1.26036704	      0.00000000
     15.06000000	    -10.43369540	      4.07522904	     -4.23492278	      2.14390089	      1.02007220	      1.04343962	    -19.92027117	     -6.60645896	    -11.73602324	     42.92520788	      0.74918621	    -16.38971259	    -10.51065534	      0.00000000	     48.09888634	      1.61798876	     -4.64825953	     30.65133255	      0.53496667	     11.27814033	      3.49459716	      0.00000000
     15.06666667	    -10.17432776	      4.05976867	     -4.62534913	      2.14343050	      1.01877100	      1.04388447	    -19.08755656	     -5.77133357	     -7.44162641	     47.31240968	      0.82575733	    -16.46213800	    -12.70529091	      0.00000000	     46.17640556	      1.57220410	     -4.46580302	     27.04958852	      0.47210438	     11.52061201	      5.41648500	      0.00000000
     15.07333333	     -9.82724254	      4.13963252	     -4.97424321	      2.14287969	      1.01708705	      1.04466773	    -18.27169802	     -4.93647605	     -3.69421606	     51.97718753	      0.90717306	    -16.34862284	    -13.94109278	      0.00000000	     44.23139491	      1.62177861	     -4.33818851	     23.88258163	      0.41682968	     11.55429387	      6.81910600	      0.00000000
     15.08000000	     -9.41676773	      4.17956639	     -5.18092371	      2.14232634	      1.01503898	      1.04561512	    -17.53037878	     -3.92625620	     -0.49573098	     56.73969652	      0.99029452	    -16.15058559	    -14.69066371	      0.00000000	     42.38583072	      1.68740392	     -4.28183259	     21.36683962	      0.37292170	     11.51510672	      7.98074098	      0.00000000
     15.08666667	     -8.96840074	      4.35611359	     -5.24167256	      2.14179870	      1.01238911	      1.04645197	    -16.82150612	     -3.04266422	      2.01754174	     61.61573022	      1.07539736	    -15.93699237	    -14.86776532	      0.00000000	     40.73379951	      1.94282645	     -4.38817668	     19.60138193	      0.34210865	     11.37138771	      8.63982944	      0.00000000
     15.09333333	     -8.52605469	      4.73877957	     -5.07494962	      2.14128330	      1.00923454	      1.04690509	    -16.07262954	     -2.48835851	      3.63523530	     66.56057993	      1.16170127	    -15.39561745	    -14.26999205	      0.00000000	     39.23982032	      2.53733286	     -4.50323963	     18.37255482	      0.32066157	     10.92883954	      8.62289511	      0.00000000
